<?xml version="1.0" standalone="no"?>
<!DOCTYPE svg PUBLIC "-//W3C//DTD SVG 20010904//EN"
 "http://www.w3.org/TR/2001/REC-SVG-20010904/DTD/svg10.dtd">
<svg version="1.0" xmlns="http://www.w3.org/2000/svg"
 width="240.000000pt" height="240.000000pt" viewBox="0 0 240.000000 240.000000"
 preserveAspectRatio="xMidYMid meet">
<metadata>
Created by potrace 1.14, written by Peter Selinger 2001-2017
</metadata>
<g transform="translate(0.000000,240.000000) scale(0.100000,-0.100000)"
fill="#000000" stroke="none">
<path d="M2196 2053 c-6 -14 -5 -15 5 -6 7 7 10 15 7 18 -3 3 -9 -2 -12 -12z"/>
<path d="M2177 2023 c-4 -3 -7 -11 -7 -17 0 -6 5 -5 12 2 6 6 9 14 7 17 -3 3
-9 2 -12 -2z"/>
<path d="M2110 1985 c-26 -28 -22 -42 8 -26 19 10 37 51 23 51 -4 0 -18 -11
-31 -25z"/>
<path d="M169 1913 c5 -11 27 -33 48 -48 21 -16 40 -32 43 -37 6 -8 100 -30
116 -27 27 5 53 -2 48 -14 -3 -9 8 -13 37 -14 22 -1 52 -9 64 -17 13 -9 31
-13 39 -10 19 7 21 20 4 27 -7 3 -1 6 15 6 25 1 26 -1 15 -19 -7 -10 -9 -22
-6 -25 8 -9 76 -27 106 -29 12 0 22 -4 22 -8 0 -5 7 -8 15 -8 8 0 15 -4 15
-10 0 -5 12 -10 28 -10 15 0 54 -13 87 -29 33 -16 77 -32 98 -36 21 -4 36 -12
34 -19 -5 -14 -153 -66 -189 -66 -38 0 -35 -16 5 -24 92 -20 108 -19 114 2 3
12 16 29 30 38 21 13 27 14 34 3 16 -26 7 -89 -12 -89 -6 0 -5 8 1 19 11 22 0
34 -24 25 -9 -3 -16 -17 -16 -30 0 -18 10 -28 45 -44 25 -12 45 -26 44 -33 -1
-7 3 -23 9 -37 10 -22 11 -21 6 15 -2 22 -1 54 4 70 9 32 42 48 42 21 0 -9 5
-16 10 -16 19 0 10 -31 -12 -40 -19 -7 -20 -9 -5 -9 14 -1 17 -6 12 -21 -5
-16 -2 -20 17 -21 13 -1 29 -1 37 1 9 1 7 -9 -9 -32 l-22 -33 29 32 c24 27 30
30 41 18 6 -8 12 -23 12 -35 0 -11 5 -20 10 -20 6 0 10 16 10 36 0 25 -4 33
-12 29 -7 -4 -5 0 5 8 9 8 17 19 17 24 0 22 25 32 44 17 25 -18 62 -18 69 0 3
9 15 12 31 9 19 -4 26 -1 26 10 0 12 8 15 35 10 40 -7 44 1 13 27 -23 18 -22
18 27 13 62 -7 57 -1 -20 25 -33 12 -84 34 -114 50 l-54 30 27 17 c15 10 29
15 33 11 3 -3 13 -1 20 6 11 9 17 9 23 -3 8 -12 13 -12 30 -1 11 7 25 10 29 7
5 -2 14 2 21 10 7 8 19 15 28 15 8 0 21 8 28 18 11 14 15 15 23 3 13 -21 129
23 143 55 6 12 23 28 39 34 16 7 26 16 23 21 -3 5 2 9 11 9 31 0 53 19 48 40
-3 11 -10 17 -17 13 -6 -3 -7 -2 -3 3 4 4 22 7 40 6 21 -2 47 7 77 26 25 16
67 37 93 47 26 10 46 19 45 21 -4 4 -178 -14 -281 -28 -49 -7 -86 -16 -83 -19
3 -3 -40 -6 -97 -7 -56 -1 -145 -10 -197 -20 -71 -14 -105 -16 -133 -9 -25 7
-46 6 -61 -1 -19 -8 -26 -7 -39 9 -23 27 -35 24 -31 -8 2 -16 1 -22 -2 -15 -3
6 -12 12 -20 12 -9 0 -12 5 -9 10 3 6 -1 10 -9 10 -9 0 -16 -8 -16 -19 0 -14
-6 -19 -20 -18 -11 1 -20 4 -20 8 0 4 -28 8 -62 10 -100 5 -538 0 -594 -7 -59
-7 -142 23 -172 60 -9 12 -23 26 -30 30 -11 7 -12 4 -3 -11z m1626 -33 c3 -5
1 -10 -4 -10 -6 0 -11 5 -11 10 0 6 2 10 4 10 3 0 8 -4 11 -10z m-562 -60 c3
-11 1 -23 -4 -26 -5 -3 -9 6 -9 20 0 31 6 34 13 6z m13 -197 c-3 -8 -6 -17 -6
-19 0 -2 -7 -4 -15 -4 -15 0 -21 31 -9 43 11 11 35 -5 30 -20z m69 -103 c3 -5
11 -10 16 -10 6 0 7 5 4 11 -4 6 12 1 35 -11 23 -12 40 -24 37 -27 -3 -3 -16
2 -29 11 -34 24 -44 19 -18 -9 27 -28 20 -47 -8 -22 -22 20 -35 12 -21 -14 9
-17 7 -18 -15 -8 -20 10 -28 9 -41 -5 -17 -17 -35 -21 -35 -8 1 4 11 20 24 36
14 16 21 36 19 47 -6 20 21 28 32 9z m-280 -90 c3 -6 -1 -7 -9 -4 -18 7 -21
14 -7 14 6 0 13 -4 16 -10z m140 -10 c3 -5 1 -10 -4 -10 -6 0 -11 5 -11 10 0
6 2 10 4 10 3 0 8 -4 11 -10z"/>
<path d="M1075 1420 c-3 -5 -1 -10 4 -10 6 0 11 5 11 10 0 6 -2 10 -4 10 -3 0
-8 -4 -11 -10z"/>
<path d="M1000 1371 c0 -7 -4 -10 -8 -7 -5 3 -6 -8 -4 -25 2 -16 8 -31 12 -34
13 -8 23 56 11 68 -8 8 -11 8 -11 -2z"/>
<path d="M787 1289 c7 -7 15 -10 18 -7 3 3 -2 9 -12 12 -14 6 -15 5 -6 -5z"/>
<path d="M1090 1210 c0 -5 5 -10 11 -10 5 0 7 5 4 10 -3 6 -8 10 -11 10 -2 0
-4 -4 -4 -10z"/>
<path d="M1769 1210 c-8 -5 -27 -10 -42 -12 -33 -5 -37 -9 -43 -43 -3 -15 -18
-44 -34 -64 -21 -25 -30 -46 -30 -72 0 -20 -11 -61 -25 -90 -15 -32 -23 -42
-20 -26 6 28 5 28 -42 28 -26 0 -91 1 -143 4 -60 2 -117 -1 -154 -10 -61 -14
-74 -13 -316 30 -103 18 -290 19 -460 1 -133 -14 -348 -23 -375 -16 -5 1 -27
2 -47 1 l-38 -1 0 -126 0 -126 103 7 c56 4 138 9 182 11 341 14 327 12 319 26
-4 6 3 5 16 -2 12 -7 20 -8 17 -3 -3 4 28 7 69 6 58 -1 80 -6 100 -22 28 -22
59 -27 68 -12 3 5 -8 11 -26 15 -40 8 -33 15 9 9 21 -3 33 -12 37 -26 3 -12 3
-23 1 -25 -10 -11 -328 -1 -336 10 -3 4 -19 4 -36 -1 -16 -5 -50 -5 -74 -1
-29 5 -49 4 -57 -3 -10 -8 -16 -7 -22 2 -5 9 -10 9 -14 3 -3 -6 -27 -8 -54 -6
-26 3 -69 4 -97 3 -27 -2 -84 -3 -125 -3 l-75 -1 -2 -337 -3 -338 75 0 c60 0
76 3 85 18 11 16 11 16 6 -1 -5 -16 38 -17 880 -17 555 1 882 5 879 11 -4 5 1
9 10 9 9 0 13 -4 10 -10 -4 -6 5 -10 19 -10 14 0 26 6 26 13 0 9 2 9 8 0 6 -9
59 -13 205 -12 l197 0 -1 369 c0 275 -3 370 -12 374 -9 3 -9 5 1 5 6 1 12 4
12 9 0 4 -23 5 -50 4 -28 -2 -56 1 -64 7 -7 6 -44 12 -83 14 -38 2 -76 8 -83
12 -8 5 -30 10 -50 12 -19 2 -78 15 -130 30 -52 14 -106 28 -119 31 -13 3 -28
17 -35 34 -7 15 -15 26 -18 23 -2 -3 -5 3 -5 13 0 9 9 23 19 30 15 11 18 24
16 55 -3 41 -4 42 -41 42 -29 0 -36 3 -31 15 4 8 9 27 12 43 3 17 10 27 22 27
12 0 19 10 23 33 6 38 6 38 -14 27z m-79 -109 c0 -5 3 -18 6 -28 5 -16 4 -16
-10 1 -18 23 -20 36 -6 36 6 0 10 -4 10 -9z m20 -111 c0 -5 -2 -10 -4 -10 -3
0 -8 5 -11 10 -3 6 -1 10 4 10 6 0 11 -4 11 -10z m21 -75 c8 -16 6 -15 -10 4
-12 13 -21 28 -21 35 0 12 14 -5 31 -39z m-115 -77 l19 -23 -22 19 c-23 19
-33 10 -12 -11 13 -13 5 -43 -11 -43 -5 0 -10 7 -10 16 0 9 5 12 13 8 8 -6 8
-3 -2 9 -7 9 -11 24 -7 32 7 20 9 19 32 -7z m-359 -42 c3 -3 -5 -6 -20 -6 -14
0 -28 4 -31 9 -7 10 41 8 51 -3z m39 5 c-4 -5 -2 -11 3 -13 5 -1 2 -10 -7 -18
-14 -13 -15 -12 -9 3 4 10 2 17 -6 17 -8 0 -6 4 3 10 19 12 23 12 16 1z m616
-14 c4 -7 8 -8 8 -3 0 5 7 3 15 -4 10 -9 15 -9 15 -1 0 6 7 11 15 11 19 0 19
-14 1 -29 -10 -8 -21 -9 -33 -3 -35 18 -95 24 -104 11 -11 -18 -21 -6 -13 14
10 27 80 30 96 4z m-952 3 c0 -5 -10 -10 -22 -10 -19 0 -20 2 -8 10 19 13 30
13 30 0z m35 0 c-3 -5 -12 -10 -18 -10 -7 0 -6 4 3 10 19 12 23 12 15 0z m160
0 c3 -5 2 -10 -4 -10 -5 0 -13 5 -16 10 -3 6 -2 10 4 10 5 0 13 -4 16 -10z
m918 -7 c11 -10 17 -12 13 -5 -4 7 -1 12 9 12 10 0 13 -5 9 -12 -5 -8 -2 -9 9
-5 10 3 17 2 17 -3 0 -17 -16 -19 -59 -8 -31 8 -45 8 -54 -1 -6 -6 -17 -11
-25 -11 -10 0 -6 8 9 25 28 29 45 31 72 8z m190 -20 c-7 -2 -19 -2 -25 0 -7 3
-2 5 12 5 14 0 19 -2 13 -5z m-543 -23 c0 -5 -4 -10 -9 -10 -6 0 -13 5 -16 10
-3 6 1 10 9 10 9 0 16 -4 16 -10z m-120 -13 c0 -10 -41 -49 -46 -45 -6 7 27
48 38 48 5 0 8 -2 8 -3z m230 -17 c0 -5 -2 -10 -4 -10 -3 0 -8 5 -11 10 -3 6
-1 10 4 10 6 0 11 -4 11 -10z m-403 -6 c-3 -3 -12 -4 -19 -1 -8 3 -5 6 6 6 11
1 17 -2 13 -5z m-482 -14 c-3 -5 -13 -10 -21 -10 -8 0 -12 5 -9 10 3 6 13 10
21 10 8 0 12 -4 9 -10z m590 -40 c3 -5 1 -10 -4 -10 -6 0 -11 5 -11 10 0 6 2
10 4 10 3 0 8 -4 11 -10z m-811 -10 c-7 -7 -19 -7 -35 -1 -23 9 -22 10 11 10
23 1 31 -2 24 -9z m736 -4 c0 -3 -4 -8 -10 -11 -5 -3 -10 -1 -10 4 0 6 5 11
10 11 6 0 10 -2 10 -4z m-90 -27 c0 -6 -9 -8 -21 -4 -15 5 -19 4 -15 -4 4 -6
3 -11 -3 -11 -13 0 -22 15 -14 24 11 10 53 7 53 -5z m200 -19 c0 -5 -7 -7 -15
-4 -8 4 -15 1 -15 -5 0 -6 -5 -11 -11 -11 -8 0 -8 5 1 15 14 17 40 20 40 5z
m280 -7 c-30 -21 -65 -26 -49 -7 6 7 16 11 24 8 7 -3 16 -1 20 5 3 6 11 11 18
11 6 0 1 -8 -13 -17z m-863 -19 c-7 -7 -37 7 -37 17 0 6 9 5 21 -1 11 -7 19
-14 16 -16z m30 20 c-3 -3 -12 -4 -19 -1 -8 3 -5 6 6 6 11 1 17 -2 13 -5z m70
0 c-3 -3 -12 -4 -19 -1 -8 3 -5 6 6 6 11 1 17 -2 13 -5z m88 -4 c15 6 22 4 22
-4 0 -15 -44 -13 -57 2 -7 8 -7 9 1 3 7 -6 21 -6 34 -1z m60 0 c-3 -5 -12 -10
-18 -10 -7 0 -6 4 3 10 19 12 23 12 15 0z m42 -6 c-3 -3 -12 -4 -19 -1 -8 3
-5 6 6 6 11 1 17 -2 13 -5z m620 0 c-3 -3 -12 -4 -19 -1 -8 3 -5 6 6 6 11 1
17 -2 13 -5z m-54 -39 c-3 -9 -8 -14 -10 -11 -3 3 -2 9 2 15 9 16 15 13 8 -4z
m-1248 -15 c3 -5 1 -10 -4 -10 -6 0 -11 5 -11 10 0 6 2 10 4 10 3 0 8 -4 11
-10z m-42 -17 c-7 -2 -19 -2 -25 0 -7 3 -2 5 12 5 14 0 19 -2 13 -5z m907 -47
c0 -2 -7 -7 -16 -10 -8 -3 -12 -2 -9 4 6 10 25 14 25 6z m467 -2 c-3 -3 -12
-4 -19 -1 -8 3 -5 6 6 6 11 1 17 -2 13 -5z m-292 -14 c3 -6 -1 -7 -9 -4 -18 7
-21 14 -7 14 6 0 13 -4 16 -10z m-175 -19 c0 -5 -7 -11 -14 -14 -10 -4 -13 -1
-9 9 6 15 23 19 23 5z m520 -1 c0 -5 -4 -10 -10 -10 -5 0 -10 5 -10 10 0 6 5
10 10 10 6 0 10 -4 10 -10z m-927 -17 c-7 -2 -19 -2 -25 0 -7 3 -2 5 12 5 14
0 19 -2 13 -5z m177 -8 c0 -8 -4 -15 -8 -15 -5 0 -9 7 -9 15 0 8 4 15 9 15 4
0 8 -7 8 -15z m980 11 c0 -3 -4 -8 -10 -11 -5 -3 -10 -1 -10 4 0 6 5 11 10 11
6 0 10 -2 10 -4z m100 -6 c8 -5 12 -11 10 -14 -3 -2 -14 2 -24 10 -22 15 -10
19 14 4z m-1325 -9 c-18 -7 -55 -4 -55 5 0 2 17 4 38 3 28 0 32 -2 17 -8z
m950 -11 c-3 -5 -15 -10 -26 -10 -10 0 -19 5 -19 10 0 6 12 10 26 10 14 0 23
-4 19 -10z m-1538 -26 c-3 -3 -12 -4 -19 -1 -8 3 -5 6 6 6 11 1 17 -2 13 -5z
m153 2 c0 -3 -4 -8 -10 -11 -5 -3 -10 -1 -10 4 0 6 5 11 10 11 6 0 10 -2 10
-4z m1137 -2 c-3 -3 -12 -4 -19 -1 -8 3 -5 6 6 6 11 1 17 -2 13 -5z m-12 -27
c15 -4 14 -5 -7 -6 -21 -1 -28 4 -28 17 0 11 3 13 8 6 4 -7 16 -14 27 -17z
m-899 -2 c10 -8 15 -14 9 -14 -5 0 -19 6 -29 14 -11 8 -15 15 -10 15 6 0 19
-7 30 -15z m1091 9 c-3 -3 -12 -4 -19 -1 -8 3 -5 6 6 6 11 1 17 -2 13 -5z
m-1177 -24 c0 -5 -2 -10 -4 -10 -3 0 -8 5 -11 10 -3 6 -1 10 4 10 6 0 11 -4
11 -10z m-600 -66 c0 -8 -5 -12 -10 -9 -6 4 -8 11 -5 16 9 14 15 11 15 -7z
m594 0 c3 -8 2 -12 -4 -9 -6 3 -10 10 -10 16 0 14 7 11 14 -7z m-644 2 c0 -3
-4 -8 -10 -11 -5 -3 -10 -1 -10 4 0 6 5 11 10 11 6 0 10 -2 10 -4z m1410 -92
c0 -2 -7 -4 -15 -4 -8 0 -15 4 -15 10 0 5 7 7 15 4 8 -4 15 -8 15 -10z m-1345
-14 c3 -5 1 -10 -4 -10 -6 0 -11 5 -11 10 0 6 2 10 4 10 3 0 8 -4 11 -10z
m1930 0 c3 -5 -1 -10 -10 -10 -9 0 -13 5 -10 10 3 6 8 10 10 10 2 0 7 -4 10
-10z m-417 -35 c0 -19 -6 -25 -22 -24 -11 0 -15 3 -8 6 6 2 12 13 12 24 0 10
4 19 9 19 5 0 9 -11 9 -25z m217 15 c3 -6 -1 -7 -9 -4 -18 7 -21 14 -7 14 6 0
13 -4 16 -10z m-1653 -26 c-4 -23 -6 -24 -15 -9 -8 14 2 32 19 35 1 0 -1 -12
-4 -26z m123 7 c-14 -12 -73 -25 -60 -13 6 6 21 12 35 15 14 2 27 5 30 6 2 0
0 -3 -5 -8z m1062 3 c-3 -3 -12 -4 -19 -1 -8 3 -5 6 6 6 11 1 17 -2 13 -5z
m-1257 -8 c0 -3 -4 -8 -10 -11 -5 -3 -10 -1 -10 4 0 6 5 11 10 11 6 0 10 -2
10 -4z m735 -6 c3 -6 -1 -7 -9 -4 -18 7 -21 14 -7 14 6 0 13 -4 16 -10z m-481
-15 c-4 -8 -10 -12 -15 -9 -11 6 -2 24 11 24 5 0 7 -7 4 -15z m1306 5 c8 -5
11 -10 5 -10 -5 0 -17 5 -25 10 -8 5 -10 10 -5 10 6 0 17 -5 25 -10z m-1060
-10 c0 -5 -5 -10 -11 -10 -5 0 -7 5 -4 10 3 6 8 10 11 10 2 0 4 -4 4 -10z
m515 -10 c3 5 17 10 31 10 14 0 22 -4 19 -10 -4 -6 5 -10 19 -10 14 0 26 -4
26 -10 0 -11 -37 -13 -92 -4 -24 4 -38 12 -38 22 0 11 3 12 14 3 10 -8 16 -9
21 -1z m-871 -40 c-6 -5 -24 21 -24 34 0 6 6 1 14 -10 8 -10 12 -21 10 -24z
m1349 24 c4 -1 13 -2 20 -3 6 -2 3 -6 -8 -11 -33 -14 -45 -11 -45 11 0 14 4
18 13 12 6 -4 15 -8 20 -9z m407 2 c0 -11 -19 -15 -25 -6 -3 5 1 10 9 10 9 0
16 -2 16 -4z m-936 -21 c3 -9 0 -15 -9 -15 -9 0 -12 6 -9 15 4 8 7 15 9 15 2
0 5 -7 9 -15z"/>
<path d="M728 683 c6 -2 18 -2 25 0 6 3 1 5 -13 5 -14 0 -19 -2 -12 -5z"/>
</g>
</svg>
